<?xml version="1.0" encoding="UTF-8"?>
<!DOCTYPE svg PUBLIC "-//W3C//DTD SVG 1.1//EN" "http://www.w3.org/Graphics/SVG/1.1/DTD/svg11.dtd">
<svg xmlns="http://www.w3.org/2000/svg" version="1.1" width="1200px" height="675px" style="shape-rendering:geometricPrecision; text-rendering:geometricPrecision; image-rendering:optimizeQuality; fill-rule:evenodd; clip-rule:evenodd" xmlns:xlink="http://www.w3.org/1999/xlink">
<g><path style="opacity:0.928" fill="#000000" d="M 301.5,31.5 C 500.167,31.3333 698.834,31.5 897.5,32C 899.609,33.1411 901.442,34.6411 903,36.5C 904.661,116.419 904.994,196.419 904,276.5C 884.5,297.333 864.333,317.5 843.5,337C 861.377,355.177 879.544,373.01 898,390.5C 900,393.167 902,395.833 904,398.5C 904.667,477.5 904.667,556.5 904,635.5C 902.056,638.734 899.222,640.9 895.5,642C 698.167,642.667 500.833,642.667 303.5,642C 299.501,641.332 296.668,639.165 295,635.5C 294.333,556.167 294.333,476.833 295,397.5C 314.538,376.962 334.372,356.796 354.5,337C 334.299,317.133 314.466,296.967 295,276.5C 294.832,197.93 294.332,119.43 293.5,41C 295.31,37.0306 297.976,33.864 301.5,31.5 Z M 333.5,383.5 C 347.213,369.287 361.046,355.287 375,341.5C 377,338.5 377,335.5 375,332.5C 354.054,311.554 333.054,290.554 312,269.5C 311.5,196.167 311.333,122.834 311.5,49.5C 503.5,49.5 695.5,49.5 887.5,49.5C 887.667,122.834 887.5,196.167 887,269.5C 865.892,290.608 844.892,311.608 824,332.5C 823.125,333.873 822.625,335.373 822.5,337C 823.114,338.537 823.114,339.87 822.5,341C 844.332,361.832 865.832,382.999 887,404.5C 887.5,477.833 887.667,551.166 887.5,624.5C 695.5,624.5 503.5,624.5 311.5,624.5C 311.333,551.166 311.5,477.833 312,404.5C 319.035,397.297 326.202,390.297 333.5,383.5 Z M 443.5,131.5 C 458.504,130.532 473.504,130.199 488.5,130.5C 515.624,135.599 534.79,150.933 546,176.5C 552.869,200.84 553.202,225.507 547,250.5C 535.845,278.497 515.345,294.663 485.5,299C 471.5,299.667 457.5,299.667 443.5,299C 444.833,243.069 444.833,187.236 443.5,131.5 Z M 703.5,150.5 C 713.874,179.439 723.04,208.439 731,237.5C 712.333,236.167 693.667,236.167 675,237.5C 684.373,208.545 693.873,179.545 703.5,150.5 Z"/></g>
<g><path style="opacity:0.9" fill="#000000" d="M 433.5,112.5 C 453.197,112.121 472.864,112.621 492.5,114C 536.004,123.84 561.337,150.84 568.5,195C 568.627,207.962 568.46,221.128 568,234.5C 561.588,277.35 537.588,304.684 496,316.5C 495.439,315.978 494.772,315.645 494,315.5C 487.928,316.284 481.928,317.284 476,318.5C 462.667,318.5 449.333,318.5 436,318.5C 431.434,317.601 428.434,314.934 427,310.5C 426.333,246.833 426.333,183.167 427,119.5C 428.045,115.96 430.212,113.626 433.5,112.5 Z M 443.5,131.5 C 444.833,187.236 444.833,243.069 443.5,299C 457.5,299.667 471.5,299.667 485.5,299C 515.345,294.663 535.845,278.497 547,250.5C 553.202,225.507 552.869,200.84 546,176.5C 534.79,150.933 515.624,135.599 488.5,130.5C 473.504,130.199 458.504,130.532 443.5,131.5 Z"/></g>
<g><path style="opacity:0.915" fill="#000000" d="M 701.5,112.5 C 706.152,111.984 709.652,113.651 712,117.5C 732.372,180.949 752.539,244.449 772.5,308C 771.863,310.245 771.03,312.412 770,314.5C 767.929,315.364 766.262,316.697 765,318.5C 762.209,317.438 759.543,316.105 757,314.5C 750.006,295.017 743.506,275.35 737.5,255.5C 714.51,254.5 691.51,254.167 668.5,254.5C 662.308,273.909 655.808,293.243 649,312.5C 644.076,317.756 639.076,317.756 634,312.5C 633.654,310.782 633.154,309.115 632.5,307.5C 653.648,244.556 674.815,181.223 696,117.5C 697.352,115.251 699.185,113.584 701.5,112.5 Z M 703.5,150.5 C 693.873,179.545 684.373,208.545 675,237.5C 693.667,236.167 712.333,236.167 731,237.5C 723.04,208.439 713.874,179.439 703.5,150.5 Z"/></g>
<g><path style="opacity:0.901" fill="#000000" d="M 432.5,356.5 C 475.168,356.333 517.835,356.5 560.5,357C 568.214,361.03 569.381,366.53 564,373.5C 526.004,429.489 488.504,485.823 451.5,542.5C 487.162,543.333 522.829,543.833 558.5,544C 564.143,544.309 567.143,547.309 567.5,553C 567.097,555.887 565.764,558.221 563.5,560C 519.559,561.651 475.559,561.984 431.5,561C 426.879,558.923 425.045,555.423 426,550.5C 464.003,491.824 502.503,433.49 541.5,375.5C 504.838,374.667 468.171,374.167 431.5,374C 425.69,371.05 424.19,366.55 427,360.5C 428.5,358.531 430.333,357.198 432.5,356.5 Z"/></g>
<g><path style="opacity:0.912" fill="#000000" d="M 638.5,356.5 C 641.675,356.503 644.508,357.503 647,359.5C 683.333,414.167 719.667,468.833 756,523.5C 756.333,469.5 756.667,415.5 757,361.5C 762.789,354.782 768.123,355.115 773,362.5C 773.667,426.833 773.667,491.167 773,555.5C 768.479,562.462 763.146,563.128 757,557.5C 721.48,503.906 685.814,449.906 650,395.5C 649.667,448.167 649.333,500.833 649,553.5C 646.525,561.05 641.692,563.05 634.5,559.5C 633.667,557.833 632.833,556.167 632,554.5C 631.333,490.5 631.333,426.5 632,362.5C 633.436,359.558 635.603,357.558 638.5,356.5 Z"/></g>
</svg>
