<svg width="443" height="119" viewBox="0 0 443 119" fill="none" xmlns="http://www.w3.org/2000/svg">
<path d="M0 95.16H14.64V56.57H39.66C57.63 56.57 70.8 48.32 70.8 28.36C70.8 8.4 57.63 0.0200043 39.66 0.0200043H0V95.17V95.16ZM14.64 43.92V12.65H38.99C50.04 12.65 55.62 17.57 55.62 28.35C55.62 39.13 50.03 43.92 38.99 43.92H14.64ZM96.17 97.02C107.22 97.02 114.93 92.63 119.32 85.58H119.59C120.39 93.3 123.85 95.83 130.37 95.83C132.5 95.83 134.76 95.56 137.02 95.03V87.05C136.22 87.18 135.82 87.18 135.42 87.18C132.89 87.18 132.23 84.65 132.23 79.73V48.59C132.23 31.02 121.05 25.17 107.08 25.17C86.32 25.17 77.8 35.42 77.14 48.46H90.45C91.12 39.41 94.71 35.68 106.55 35.68C116.53 35.68 119.46 39.81 119.46 44.73C119.46 51.38 112.94 52.71 102.29 54.71C85.39 57.9 73.95 62.43 73.95 77.6C73.95 89.18 82.6 97.03 96.17 97.03V97.02ZM87.52 76.66C87.52 69.61 92.58 66.28 104.55 63.88C111.47 62.42 117.33 60.95 119.45 58.96V68.67C119.45 80.51 110.8 86.5 99.09 86.5C90.97 86.5 87.51 83.04 87.51 76.65L87.52 76.66ZM154.8 118.98C165.31 118.98 171.83 113.52 178.35 96.76L205.23 27.3H191.52L172.89 79.2H172.62L152.79 27.3H138.55L165.96 94.5C163.3 105.15 157.18 107.81 151.99 107.81C149.86 107.81 148.66 107.68 146.4 107.41V118.06C149.86 118.73 151.86 118.99 154.78 118.99L154.8 118.98ZM213.21 95.16H226.25V0.00999451H213.21V95.16ZM271.23 97.15C292.39 97.15 305.16 82.38 305.16 61.09C305.16 39.8 292.38 25.16 271.36 25.16C250.34 25.16 237.29 40.06 237.29 61.22C237.29 82.38 250.07 97.15 271.22 97.15H271.23ZM250.87 61.22C250.87 46.98 257.26 36.07 271.36 36.07C285.46 36.07 291.59 46.98 291.59 61.22C291.59 75.46 285.2 86.37 271.36 86.37C257.52 86.37 250.87 75.32 250.87 61.22ZM335.03 97.02C346.08 97.02 353.79 92.63 358.18 85.58H358.45C359.25 93.3 362.71 95.83 369.23 95.83C371.36 95.83 373.62 95.56 375.88 95.03V87.05C375.08 87.18 374.68 87.18 374.28 87.18C371.75 87.18 371.09 84.65 371.09 79.73V48.59C371.09 31.02 359.91 25.17 345.94 25.17C325.18 25.17 316.66 35.42 316 48.46H329.31C329.98 39.41 333.57 35.68 345.41 35.68C355.39 35.68 358.32 39.81 358.32 44.73C358.32 51.38 351.8 52.71 341.15 54.71C324.25 57.9 312.81 62.43 312.81 77.6C312.81 89.18 321.46 97.03 335.03 97.03V97.02ZM326.38 76.66C326.38 69.61 331.44 66.28 343.41 63.88C350.33 62.42 356.19 60.95 358.31 58.96V68.67C358.31 80.51 349.66 86.5 337.95 86.5C329.83 86.5 326.37 83.04 326.37 76.65L326.38 76.66ZM413.32 97.02C423.97 97.02 430.49 91.96 434.21 87.17H434.48V95.15H447.52V0H434.48V35.53H434.21C430.48 30.21 423.96 25.28 413.32 25.28C396.02 25.28 382.85 38.85 382.85 61.21C382.85 83.57 396.02 97.01 413.32 97.01V97.02ZM396.42 61.22C396.42 47.91 402.67 36.2 415.45 36.2C427.16 36.2 434.35 45.78 434.35 61.22C434.35 76.66 427.16 86.24 415.45 86.24C402.67 86.24 396.42 74.53 396.42 61.22Z" fill="white"/>
</svg>
