<svg width="129" height="29" viewBox="0 0 129 29" fill="none" xmlns="http://www.w3.org/2000/svg">
<path d="M0.8 28V-1.90735e-06H13.6C16.16 -1.90735e-06 18.36 0.413332 20.2 1.24C22.0667 2.06667 23.5067 3.26667 24.52 4.84C25.5333 6.38667 26.04 8.22667 26.04 10.36C26.04 12.4667 25.5333 14.2933 24.52 15.84C23.5067 17.3867 22.0667 18.5867 20.2 19.44C18.36 20.2667 16.16 20.68 13.6 20.68H5.2L8.72 17.24V28H0.8ZM8.72 18.08L5.2 14.44H13.12C14.7733 14.44 16 14.08 16.8 13.36C17.6267 12.64 18.04 11.64 18.04 10.36C18.04 9.05333 17.6267 8.04 16.8 7.32C16 6.6 14.7733 6.24 13.12 6.24H5.2L8.72 2.6V18.08ZM40.8625 28.36C38.3025 28.36 36.0625 27.88 34.1425 26.92C32.2492 25.9333 30.7692 24.6 29.7025 22.92C28.6625 21.2133 28.1425 19.28 28.1425 17.12C28.1425 14.96 28.6492 13.04 29.6625 11.36C30.7025 9.65333 32.1292 8.33333 33.9425 7.4C35.7558 6.44 37.7958 5.96 40.0625 5.96C42.1958 5.96 44.1425 6.4 45.9025 7.28C47.6625 8.13333 49.0625 9.4 50.1025 11.08C51.1425 12.76 51.6625 14.8 51.6625 17.2C51.6625 17.4667 51.6492 17.7733 51.6225 18.12C51.5958 18.4667 51.5692 18.7867 51.5425 19.08H34.3825V15.08H47.5025L44.6225 16.2C44.6492 15.2133 44.4625 14.36 44.0625 13.64C43.6892 12.92 43.1558 12.36 42.4625 11.96C41.7958 11.56 41.0092 11.36 40.1025 11.36C39.1958 11.36 38.3958 11.56 37.7025 11.96C37.0358 12.36 36.5158 12.9333 36.1425 13.68C35.7692 14.4 35.5825 15.2533 35.5825 16.24V17.4C35.5825 18.4667 35.7958 19.3867 36.2225 20.16C36.6758 20.9333 37.3158 21.5333 38.1425 21.96C38.9692 22.36 39.9558 22.56 41.1025 22.56C42.1692 22.56 43.0758 22.4133 43.8225 22.12C44.5958 21.8 45.3558 21.32 46.1025 20.68L50.1025 24.84C49.0625 25.9867 47.7825 26.8667 46.2625 27.48C44.7425 28.0667 42.9425 28.36 40.8625 28.36ZM69.2866 5.96C70.9666 5.96 72.4866 6.30667 73.8466 7C75.2066 7.66667 76.2732 8.70667 77.0466 10.12C77.8466 11.5333 78.2466 13.36 78.2466 15.6V28H70.6466V16.84C70.6466 15.2933 70.3266 14.1733 69.6866 13.48C69.0732 12.76 68.2066 12.4 67.0866 12.4C66.2866 12.4 65.5532 12.5867 64.8866 12.96C64.2199 13.3067 63.6999 13.8533 63.3266 14.6C62.9532 15.3467 62.7666 16.32 62.7666 17.52V28H55.1666V6.32H62.4066V12.48L61.0066 10.68C61.8332 9.10667 62.9666 7.93333 64.4066 7.16C65.8466 6.36 67.4732 5.96 69.2866 5.96ZM92.6981 28.36C89.9248 28.36 87.7648 27.68 86.2181 26.32C84.6715 24.9333 83.8981 22.8533 83.8981 20.08V1.48H91.4981V20C91.4981 20.7733 91.7115 21.3867 92.1381 21.84C92.5648 22.2667 93.1115 22.48 93.7781 22.48C94.6848 22.48 95.4581 22.2533 96.0981 21.8L97.9781 27.12C97.3381 27.5467 96.5515 27.8533 95.6181 28.04C94.6848 28.2533 93.7115 28.36 92.6981 28.36ZM80.7381 12.8V7.12H96.4581V12.8H80.7381ZM98.3887 28L110.629 11L110.589 16.64L98.8288 -1.90735e-06H107.749L115.269 10.84L111.469 10.88L118.869 -1.90735e-06H127.429L115.669 16.32V10.72L128.069 28H118.949L111.309 16.6H114.949L107.429 28H98.3887Z" fill="white"/>
</svg>
